<?xml version="1.0" encoding="UTF-8" standalone="no"?>
<!-- Created with Vectornator (http://vectornator.io/) -->

<svg
   height="100%"
   stroke-miterlimit="10"
   style="fill-rule:nonzero;clip-rule:evenodd;stroke-linecap:round;stroke-linejoin:round;"
   version="1.1"
   viewBox="0 0 595.35 841.995"
   width="100%"
   xml:space="preserve"
   id="svg151"
   sodipodi:docname="Logo-C3-blancoconletra.svg"
   inkscape:export-filename="logocarlos3.png"
   inkscape:export-xdpi="96"
   inkscape:export-ydpi="96"
   inkscape:version="1.3 (0e150ed6c4, 2023-07-21)"
   xmlns:inkscape="http://www.inkscape.org/namespaces/inkscape"
   xmlns:sodipodi="http://sodipodi.sourceforge.net/DTD/sodipodi-0.dtd"
   xmlns="http://www.w3.org/2000/svg"
   xmlns:svg="http://www.w3.org/2000/svg"><sodipodi:namedview
   id="namedview153"
   pagecolor="#ffffff"
   bordercolor="#666666"
   borderopacity="1.0"
   inkscape:showpageshadow="2"
   inkscape:pageopacity="0.0"
   inkscape:pagecheckerboard="0"
   inkscape:deskcolor="#d1d1d1"
   showgrid="false"
   inkscape:zoom="0.45995399"
   inkscape:cx="166.32098"
   inkscape:cy="277.20164"
   inkscape:window-width="1366"
   inkscape:window-height="705"
   inkscape:window-x="1912"
   inkscape:window-y="113"
   inkscape:window-maximized="1"
   inkscape:current-layer="svg151" />&#10;<defs
   id="defs2"><rect
   x="179.04636"
   y="325.4489"
   width="302.69715"
   height="91.006987"
   id="rect577" />&#10;&#10;&#10;&#10;&#10;&#10;&#10;&#10;&#10;&#10;&#10;&#10;&#10;&#10;&#10;&#10;&#10;&#10;&#10;&#10;<rect
   x="179.04636"
   y="325.4489"
   width="302.69715"
   height="91.006987"
   id="rect3507" /></defs>&#10;&#10;<path
   d="M 24.718559,97.081424 V 644.49186 H 353.16548 L 298.42372,589.75283 407.90727,480.26926 353.16548,425.52749 298.42372,370.78573 353.16548,316.04395 407.90727,261.30588 298.42372,151.8216 353.16548,97.081424 Z M 243.68194,206.56412 298.42372,261.30588 188.9439,370.78573 298.42372,480.26926 243.68194,535.01104 79.460327,370.78573 Z M 353.16548,97.081424 517.39082,261.30588 407.90727,370.78573 517.39082,480.26926 353.16548,644.49186 H 572.13259 V 97.081424 Z"
   fill="#364f59"
   fill-rule="nonzero"
   opacity="1"
   stroke="none"
   id="path104"
   style="stroke-width:2.25677;fill:#364f59;fill-opacity:1" />&#10;<g
   aria-label="CIFP CARLOS III"
   transform="matrix(2.255147,0,0,3.1698807,-382.28923,-383.22169)"
   id="text3505"
   style="font-size:33.3333px;line-height:1.25;font-family:'Arial Black';-inkscape-font-specification:'Arial Black, ';letter-spacing:-0.09px;white-space:pre;shape-inside:url(#rect3507);fill:#364f59;fill-opacity:1"><path
     d="m 198.38019,340.22145 h 3.16666 q -0.26666,-1.9 -1.13333,-3.33333 -0.86666,-1.46666 -2.16666,-2.43333 -1.3,-0.96667 -2.96667,-1.46667 -1.66666,-0.5 -3.53333,-0.5 -2.73333,0 -4.86666,1 -2.1,0.96667 -3.53333,2.66667 -1.4,1.7 -2.13333,3.99999 -0.73333,2.26667 -0.73333,4.86667 0,2.59999 0.66666,4.86666 0.7,2.26666 2.06667,3.93333 1.36666,1.66666 3.43333,2.63333 2.06666,0.93333 4.83333,0.93333 4.56666,0 7.19999,-2.5 2.63333,-2.49999 3.1,-6.99999 h -3.16667 q -0.1,1.46667 -0.6,2.73333 -0.5,1.26667 -1.4,2.2 -0.86666,0.9 -2.09999,1.43333 -1.2,0.5 -2.76667,0.5 -2.13333,0 -3.66666,-0.8 -1.53333,-0.8 -2.53333,-2.13333 -0.96667,-1.36667 -1.43333,-3.16666 -0.46667,-1.83334 -0.46667,-3.86667 0,-1.86666 0.46667,-3.59999 0.46666,-1.73334 1.43333,-3.06667 1,-1.36666 2.5,-2.16666 1.53333,-0.8 3.66666,-0.8 2.5,0 4.3,1.26666 1.83333,1.26667 2.36666,3.8 z"
     style="font-family:'Helvetica Neue';-inkscape-font-specification:'Helvetica Neue';fill:#364f59;fill-opacity:1"
     id="path3933" /><path
     d="m 205.75679,333.05479 v 23.79998 h 3.16666 v -23.79998 z"
     style="font-family:'Helvetica Neue';-inkscape-font-specification:'Helvetica Neue';fill:#364f59;fill-opacity:1"
     id="path3935" /><path
     d="m 214.16674,333.05479 v 23.79998 h 3.16667 v -10.89999 h 10.93332 v -2.66667 h -10.93332 v -7.56665 h 12.46665 v -2.66667 z"
     style="font-family:'Helvetica Neue';-inkscape-font-specification:'Helvetica Neue';fill:#364f59;fill-opacity:1"
     id="path3937" /><path
     d="m 236.3767,344.45478 v -8.73332 h 6.2 q 2.7,0 3.93333,1.13333 1.26666,1.1 1.26666,3.23333 0,2.13333 -1.26666,3.26666 -1.23333,1.13333 -3.93333,1.1 z m -3.16666,-11.39999 v 23.79998 h 3.16666 v -9.73333 h 7.26666 q 3.6,0.0333 5.43333,-1.83333 1.86667,-1.86666 1.86667,-5.19999 0,-3.33333 -1.86667,-5.16666 -1.83333,-1.86667 -5.43333,-1.86667 z"
     style="font-family:'Helvetica Neue';-inkscape-font-specification:'Helvetica Neue';fill:#364f59;fill-opacity:1"
     id="path3939" /><path
     d="m 279.21995,340.22145 h 3.16666 q -0.26666,-1.9 -1.13333,-3.33333 -0.86666,-1.46666 -2.16666,-2.43333 -1.3,-0.96667 -2.96667,-1.46667 -1.66666,-0.5 -3.53333,-0.5 -2.73333,0 -4.86666,1 -2.1,0.96667 -3.53333,2.66667 -1.4,1.7 -2.13333,3.99999 -0.73333,2.26667 -0.73333,4.86667 0,2.59999 0.66666,4.86666 0.7,2.26666 2.06667,3.93333 1.36666,1.66666 3.43333,2.63333 2.06666,0.93333 4.83333,0.93333 4.56666,0 7.19999,-2.5 2.63333,-2.49999 3.1,-6.99999 h -3.16667 q -0.1,1.46667 -0.6,2.73333 -0.5,1.26667 -1.4,2.2 -0.86666,0.9 -2.09999,1.43333 -1.2,0.5 -2.76667,0.5 -2.13333,0 -3.66666,-0.8 -1.53333,-0.8 -2.53333,-2.13333 -0.96667,-1.36667 -1.43333,-3.16666 -0.46667,-1.83334 -0.46667,-3.86667 0,-1.86666 0.46667,-3.59999 0.46666,-1.73334 1.43333,-3.06667 1,-1.36666 2.5,-2.16666 1.53333,-0.8 3.66666,-0.8 2.5,0 4.3,1.26666 1.83333,1.26667 2.36666,3.8 z"
     style="letter-spacing:-0.25px;fill:#364f59;fill-opacity:1"
     id="path3941" /><path
     d="m 290.40321,347.02144 4.03333,-11.09999 h 0.0667 l 3.96666,11.09999 z m 2.36666,-13.96665 -9.26665,23.79998 h 3.23333 l 2.66666,-7.16666 h 10.06666 l 2.6,7.16666 h 3.49999 l -9.29999,-23.79998 z"
     style="letter-spacing:-0.25px;fill:#364f59;fill-opacity:1"
     id="path3943" /><path
     d="m 307.65315,333.05479 v 23.79998 h 3.16667 v -10.16666 h 7.73332 q 1.16667,0 1.86667,0.36667 0.7,0.33333 1.13333,0.93333 0.43333,0.56667 0.63333,1.36667 0.2,0.76666 0.33333,1.63333 0.16667,0.86666 0.2,1.76666 0.0333,0.9 0.0667,1.7 0.0333,0.76667 0.13333,1.4 0.13334,0.63333 0.46667,1 h 3.53333 q -0.5,-0.6 -0.76667,-1.36667 -0.23333,-0.8 -0.36666,-1.66666 -0.13334,-0.86667 -0.16667,-1.76667 -0.0333,-0.9 -0.1,-1.76666 -0.1,-0.86667 -0.3,-1.66667 -0.16667,-0.8 -0.56666,-1.43333 -0.36667,-0.66667 -1.03334,-1.13333 -0.63333,-0.46667 -1.66666,-0.66667 v -0.0667 q 2.16666,-0.6 3.13333,-2.23334 1,-1.63333 1,-3.79999 0,-2.9 -1.93333,-4.56666 -1.9,-1.66667 -5.3,-1.66667 z m 9.76666,10.96666 h -6.59999 v -8.29999 h 7.86665 q 2.23334,0 3.23333,1.13333 1,1.13333 1,2.93333 0,1.3 -0.46666,2.13333 -0.43334,0.8 -1.2,1.3 -0.73333,0.46666 -1.73333,0.63333 -1,0.16667 -2.1,0.16667 z"
     style="letter-spacing:-0.25px;fill:#364f59;fill-opacity:1"
     id="path3945" /><path
     d="m 330.23644,333.05479 v 23.79998 h 15.76665 v -2.66667 h -12.59998 v -21.13331 z"
     style="letter-spacing:-0.25px;fill:#364f59;fill-opacity:1"
     id="path3947" /><path
     d="m 350.35308,344.95478 q 0,-1.8 0.46667,-3.53333 0.46667,-1.76667 1.46666,-3.16666 1,-1.4 2.56667,-2.23334 1.56666,-0.86666 3.73333,-0.86666 2.16666,0 3.73333,0.86666 1.56666,0.83334 2.56666,2.23334 1,1.39999 1.46667,3.16666 0.46666,1.73333 0.46666,3.53333 0,1.8 -0.46666,3.56666 -0.46667,1.73333 -1.46667,3.13333 -1,1.4 -2.56666,2.26667 -1.56667,0.83333 -3.73333,0.83333 -2.16667,0 -3.73333,-0.83333 -1.56667,-0.86667 -2.56667,-2.26667 -0.99999,-1.4 -1.46666,-3.13333 -0.46667,-1.76666 -0.46667,-3.56666 z m -3.16666,0 q 0,2.43333 0.7,4.7 0.73333,2.23333 2.16666,3.96666 1.43334,1.73333 3.56667,2.76666 2.13333,1 4.96666,1 2.83333,0 4.96666,-1 2.13333,-1.03333 3.56666,-2.76666 1.43334,-1.73333 2.13334,-3.96666 0.73333,-2.26667 0.73333,-4.7 0,-2.43333 -0.73333,-4.66666 -0.7,-2.26667 -2.13334,-4 -1.43333,-1.73333 -3.56666,-2.76666 -2.13333,-1.03334 -4.96666,-1.03334 -2.83333,0 -4.96666,1.03334 -2.13333,1.03333 -3.56667,2.76666 -1.43333,1.73333 -2.16666,4 -0.7,2.23333 -0.7,4.66666 z"
     style="letter-spacing:-0.25px;fill:#364f59;fill-opacity:1"
     id="path3949" /><path
     d="m 387.36966,340.02145 h 2.99999 q -0.0667,-1.96666 -0.76666,-3.36666 -0.66667,-1.43333 -1.86667,-2.36667 -1.16666,-0.93333 -2.73333,-1.36666 -1.56666,-0.43334 -3.39999,-0.43334 -1.63334,0 -3.2,0.43334 -1.53333,0.4 -2.76667,1.26666 -1.19999,0.83334 -1.93333,2.16667 -0.73333,1.3 -0.73333,3.09999 0,1.63334 0.63333,2.73334 0.66667,1.06666 1.73334,1.76666 1.09999,0.66667 2.46666,1.1 1.36666,0.4 2.76666,0.73333 1.43334,0.3 2.8,0.6 1.36667,0.3 2.43333,0.8 1.1,0.46667 1.73333,1.23333 0.66667,0.76667 0.66667,2 0,1.3 -0.53333,2.13333 -0.53334,0.83333 -1.4,1.33333 -0.86667,0.46667 -1.96667,0.66667 -1.06666,0.2 -2.13333,0.2 -1.33333,0 -2.6,-0.33333 -1.26666,-0.33334 -2.23333,-1.03334 -0.93333,-0.69999 -1.53333,-1.76666 -0.56666,-1.1 -0.56666,-2.6 h -3 q 0,2.16667 0.76666,3.76667 0.8,1.56666 2.13334,2.59999 1.36666,1 3.13333,1.5 1.79999,0.5 3.79999,0.5 1.63333,0 3.26667,-0.4 1.66666,-0.36666 2.99999,-1.2 1.33333,-0.86666 2.16667,-2.2 0.86666,-1.36666 0.86666,-3.26666 0,-1.76666 -0.66666,-2.93333 -0.63334,-1.16666 -1.73333,-1.93333 -1.06667,-0.76667 -2.43334,-1.2 -1.36666,-0.46667 -2.79999,-0.8 -1.4,-0.33333 -2.76667,-0.6 -1.36666,-0.3 -2.46666,-0.73333 -1.06667,-0.43333 -1.73333,-1.1 -0.63334,-0.7 -0.63334,-1.8 0,-1.16666 0.43334,-1.93333 0.46666,-0.8 1.2,-1.26667 0.76666,-0.46666 1.73333,-0.66666 0.96666,-0.2 1.96666,-0.2 2.46667,0 4.03333,1.16666 1.6,1.13334 1.86667,3.7 z"
     style="letter-spacing:-0.25px;fill:#364f59;fill-opacity:1"
     id="path3951" /><path
     d="m 402.85294,333.05479 v 23.79998 h 3.16667 v -23.79998 z"
     style="font-family:'Helvetica Neue';-inkscape-font-specification:'Helvetica Neue';fill:#364f59;fill-opacity:1"
     id="path3953" /><path
     d="m 411.39622,333.05479 v 23.79998 h 3.16666 v -23.79998 z"
     style="font-family:'Helvetica Neue';-inkscape-font-specification:'Helvetica Neue';fill:#364f59;fill-opacity:1"
     id="path3955" /><path
     d="m 419.93951,333.05479 v 23.79998 h 3.16666 v -23.79998 z"
     style="font-family:'Helvetica Neue';-inkscape-font-specification:'Helvetica Neue';fill:#364f59;fill-opacity:1"
     id="path3957" /></g></svg>
